HIERARCHY
ROOT Hips
{
	OFFSET -3.958830 18.904000 13.208200
	CHANNELS 6 Xposition Yposition Zposition Zrotation Yrotation Xrotation 
	JOINT LHipJoint
	{
		OFFSET 0.000000 0.000000 0.000000
		CHANNELS 3 Zrotation Yrotation Xrotation
		JOINT LeftUpLeg
		{
			OFFSET 1.800000 -1.400000 0.085000
			CHANNELS 3 Zrotation Yrotation Xrotation
			JOINT LeftLeg
			{
				OFFSET 2.215000 -6.000000 0.000000
				CHANNELS 3 Zrotation Yrotation Xrotation
				JOINT LeftFoot
				{
					OFFSET 2.500000 -6.900000 0.000000
					CHANNELS 3 Zrotation Yrotation Xrotation
					JOINT LeftToeBase
					{
						OFFSET 0.200000 -0.500000 1.950000
						CHANNELS 3 Zrotation Yrotation Xrotation
						End Site
						{
							OFFSET 0.000000 0.000000 0.000000
						}
					}
				}
			}
		}
	}
	JOINT RHipJoint
	{
		OFFSET 0.000000 0.000000 0.000000
		CHANNELS 3 Zrotation Yrotation Xrotation
		JOINT RightUpLeg
		{
			OFFSET -1.800000 -1.400000 0.085000
			CHANNELS 3 Zrotation Yrotation Xrotation
			JOINT RightLeg
			{
				OFFSET -2.215000 -6.000000 0.000000
				CHANNELS 3 Zrotation Yrotation Xrotation
				JOINT RightFoot
				{
					OFFSET -2.500000 -6.900000 0.000000
					CHANNELS 3 Zrotation Yrotation Xrotation
					JOINT RightToeBase
					{
						OFFSET -0.200000 -0.500000 1.950000
						CHANNELS 3 Zrotation Yrotation Xrotation
						End Site
						{
							OFFSET 0.000000 0.000000 0.000000
						}
					}
				}
			}
		}
	}
	JOINT LowerBack
	{
		OFFSET 0.000000 0.000000 0.000000
		CHANNELS 3 Zrotation Yrotation Xrotation
		JOINT Spine
		{
			OFFSET -0.087000 1.940000 -0.288900
			CHANNELS 3 Zrotation Yrotation Xrotation
			JOINT Spine1
			{
				OFFSET 0.000000 1.950000 0.060000
				CHANNELS 3 Zrotation Yrotation Xrotation
				JOINT Neck
				{
					OFFSET 0.000000 0.000000 0.000000
					CHANNELS 3 Zrotation Yrotation Xrotation
					JOINT Neck1
					{
						OFFSET 0.000000 1.600000 0.340000
						CHANNELS 3 Zrotation Yrotation Xrotation
						JOINT Head
						{
							OFFSET 0.000000 1.667000 -0.240000
							CHANNELS 3 Zrotation Yrotation Xrotation
							End Site
							{
								OFFSET 0.000000 0.000000 0.000000
							}
						}
					}
				}
				JOINT LeftShoulder
				{
					OFFSET 0.000000 0.000000 0.000000
					CHANNELS 3 Zrotation Yrotation Xrotation
					JOINT LeftArm
					{
						OFFSET 2.700000 1.550000 -0.730000
						CHANNELS 3 Zrotation Yrotation Xrotation
						JOINT LeftForeArm
						{
							OFFSET 5.450000 0.000000 0.000000
							CHANNELS 3 Zrotation Yrotation Xrotation
							JOINT LeftHand
							{
								OFFSET 3.450000 0.000000 0.000000
								CHANNELS 3 Zrotation Yrotation Xrotation
								JOINT LeftHandIndex1
								{
									OFFSET 0.750000 0.000000 0.000000
									CHANNELS 3 Zrotation Yrotation Xrotation
									End Site
									{
										OFFSET 0.000000 0.000000 0.000000
									}
								}
							}
						}
					}
				}
				JOINT RightShoulder
				{
					OFFSET 0.000000 0.000000 0.000000
					CHANNELS 3 Zrotation Yrotation Xrotation
					JOINT RightArm
					{
						OFFSET -2.700000 1.550000 -0.730000
						CHANNELS 3 Zrotation Yrotation Xrotation
						JOINT RightForeArm
						{
							OFFSET -5.450000 0.000000 0.000000
							CHANNELS 3 Zrotation Yrotation Xrotation
							JOINT RightHand
							{
								OFFSET -3.450000 0.000000 0.000000
								CHANNELS 3 Zrotation Yrotation Xrotation
								JOINT RightHandIndex1
								{
									OFFSET -0.750000 0.000000 0.000000
									CHANNELS 3 Zrotation Yrotation Xrotation
									End Site
									{
										OFFSET 0.000000 0.000000 0.000000
									}
								}
							}
						}
					}
				}
			}
		}
	}
}
MOTION
Frames: 4
Frame Time: 0.016667
-0.291690 16.953660 -0.829050 -2.717735 -8.625056 -2.504040 -15.169259 14.264890 3.276459 3.659854 0.832494 -0.001855 -6.026855 5.357048 6.276022 -1.235947 5.503940 3.085226 -0.647810 -1.258530 -0.827920 18.190562 -9.955961 3.399923 5.506258 3.235890 -17.923756 6.573429 -4.708350 8.544200 -0.075830 -2.268954 4.014112 -0.544780 1.203550 0.193780 -3.288711 -4.367799 -8.273378 11.591462 -4.672015 16.181779 -5.421000 -2.860118 -7.462076 3.313417 -6.060026 -14.400756 -23.159276 14.723263 58.127468 1.936700 1.593350 -11.081090 -18.194977 -3.688213 3.772998 -58.321896 -2.906702 -6.471884 35.666434 -32.527870 -14.190639 -4.051034 1.638455 1.598610 0.311610 -0.209150 0.246090 12.668336 7.289200 9.400142 73.962181 -1.215700 -21.405380 -25.788567 52.046026 -13.028562 1.011908 -0.088400 -1.138310 1.099380 1.071900 -0.278870 
-0.295790 16.962380 -0.828010 -2.627589 -8.303200 -2.604375 -15.169074 14.256873 3.275201 3.682060 0.827465 -0.034271 -6.022120 5.354676 6.333533 -1.242802 5.493122 3.083921 -0.632120 -1.236480 -0.814270 18.186794 -9.981108 3.395547 5.322297 3.123738 -17.595457 6.713767 -4.716084 8.237707 -0.090576 -2.288184 4.006678 -0.532580 1.192690 0.195830 -3.287262 -4.320111 -8.284023 11.367026 -4.485532 16.059222 -5.455980 -2.712048 -7.200703 3.316356 -5.726291 -14.446480 -22.566473 14.453755 59.258750 1.899130 1.473000 -11.068810 -18.370346 -4.207221 3.837474 -57.979321 -3.425579 -6.359322 36.197326 -32.263317 -14.357927 -4.049707 1.633906 1.602780 0.309450 -0.196740 0.248220 12.822585 7.567695 9.420439 74.063507 -1.275820 -21.447744 -27.372939 50.711582 -13.403132 1.011264 -0.084807 -1.133290 1.101170 1.062180 -0.281520 
-0.295490 16.976320 -0.831440 -2.633741 -7.595666 -2.715346 -15.152913 14.235045 3.248743 3.727661 0.793804 -0.282044 -5.877596 5.351724 6.688942 -1.261869 5.448940 3.084500 -0.605500 -1.199720 -0.788020 18.196659 -10.029837 3.398274 4.981138 2.972874 -17.167584 7.145164 -4.733349 7.662323 -0.104620 -2.328497 3.985664 -0.508380 1.164790 0.188750 -3.335866 -4.202045 -8.283279 11.480693 -4.229628 15.886009 -5.786014 -2.469767 -6.678433 3.329562 -5.242744 -14.344776 -21.532431 13.647132 60.557673 1.642480 1.047200 -10.799090 -18.807146 -5.003366 3.796928 -57.107622 -4.629840 -6.093160 37.039579 -32.170315 -14.714358 -4.043557 1.639665 1.595220 0.303000 -0.189410 0.243510 13.116998 7.998217 9.378528 73.960400 -1.368855 -21.286872 -29.696812 47.911737 -13.653126 1.028727 -0.108406 -1.124100 1.092470 1.044590 -0.289400 
-0.289130 16.985780 -0.827630 -2.778488 -6.934137 -2.652513 -15.125095 14.207102 3.215191 3.749050 0.737608 -0.652514 -5.639542 5.313018 7.010515 -1.274813 5.388970 3.097105 -0.587640 -1.170070 -0.769100 18.218511 -10.072991 3.417175 4.731758 2.848092 -16.750929 7.700296 -4.736794 6.880271 -0.120179 -2.369788 3.964055 -0.489890 1.150290 0.186620 -3.418797 -4.071246 -8.282882 12.057029 -3.965322 15.589033 -6.428200 -2.183152 -6.709626 3.443750 -4.742242 -14.130431 -20.360819 12.848817 61.740258 1.620410 0.628570 -10.323820 -19.267919 -5.309418 3.601472 -56.310303 -5.742406 -5.687657 38.284451 -32.427203 -15.237080 -4.047558 1.636100 1.580720 0.303080 -0.182360 0.242540 13.186177 7.957528 9.201129 73.524367 -1.778997 -20.545374 -30.871650 44.132499 -12.905540 1.071254 -0.151422 -1.113900 1.087200 1.028870 -0.288960 
